<svg xmlns="http://www.w3.org/2000/svg" xmlns:xlink="http://www.w3.org/1999/xlink" width="1920" zoomAndPan="magnify" viewBox="0 0 1440 1439.999935" height="1920" preserveAspectRatio="xMidYMid meet" version="1.0"><defs><clipPath id="b41bfe969c"><path d="M 82.800781 0 L 1357.050781 0 L 1357.050781 1440 L 82.800781 1440 Z M 82.800781 0 " clip-rule="nonzero"/></clipPath></defs><g clip-path="url(#b41bfe969c)"><path fill="#ffffff" d="M 1164.03125 1279.183594 C 1150.679688 1307.066406 1149.917969 1383.675781 1183.367188 1382.660156 C 1200.316406 1382.15625 1210.714844 1392.328125 1212.996094 1406.429688 C 1215.160156 1419.734375 1209.164062 1434.222656 1195.257812 1438.339844 C 1184.292969 1441.59375 1163.226562 1438.878906 1159.898438 1422.125 C 1156.855469 1406.800781 1151.128906 1396.492188 1142.757812 1384.199219 C 1110.964844 1337.414062 1147.441406 1274.125 1129.242188 1238.738281 C 1118.351562 1217.566406 1083.886719 1185.671875 1058.988281 1195.695312 C 1042.605469 1202.289062 1036.085938 1225.9375 1010.039062 1219.105469 C 971.425781 1208.972656 931.535156 1199.664062 893.667969 1184.851562 C 872.304688 1176.496094 862.054688 1161.382812 862.277344 1137.660156 C 862.367188 1127.886719 844.195312 1115.476562 834.78125 1120.816406 C 815.714844 1131.648438 797.5 1134.8125 778.910156 1120.726562 C 746.402344 1096.097656 714.996094 1070.078125 686.949219 1040.835938 C 671.792969 1025.050781 672.179688 1006.6875 678.160156 987.246094 C 683.621094 969.507812 664.734375 954.960938 647.695312 957.320312 C 630.003906 959.765625 616.652344 948.144531 609.117188 934.195312 C 588.542969 896.136719 572.804688 856.851562 560.269531 815.257812 C 550.109375 781.554688 590.125 779.542969 577.382812 753.644531 C 567.28125 733.128906 560.988281 712.316406 549.023438 692.398438 C 512.902344 632.289062 430.027344 603.421875 391.492188 644.914062 C 351.492188 687.96875 396.9375 737.722656 393.296875 771.351562 C 390.773438 794.640625 379.289062 817.734375 363.277344 834.207031 C 336.542969 819.972656 389.433594 791.105469 359.699219 730.949219 C 350.882812 713.121094 352.089844 694.863281 346.300781 675.378906 C 328.160156 687.402344 312.585938 701.113281 304.320312 720.121094 C 292.980469 746.183594 324.640625 804.996094 282.132812 852.691406 C 278.34375 856.929688 270.839844 856.046875 267.601562 853.226562 C 252.101562 839.785156 304.574219 813.171875 271.644531 744.707031 C 254.503906 758.746094 163.019531 797.476562 158.902344 775.113281 C 155.558594 756.96875 190.472656 763.625 216.324219 749.046875 C 290.667969 707.15625 263.484375 703.320312 317.460938 650.417969 C 197.484375 627.308594 178.535156 717.761719 156.007812 707.199219 C 135.867188 697.753906 198.394531 641.121094 217.625 633.320312 C 163.484375 574.851562 117.203125 604.40625 115.921875 585.101562 C 114.636719 565.796875 171.898438 565.109375 218.714844 602.230469 C 236.871094 616.625 254.25 623.578125 278.65625 620.101562 C 298.054688 617.34375 318.910156 622.847656 337.679688 614.65625 C 383.464844 594.679688 403.261719 542.328125 388.3125 495.199219 C 379.019531 465.914062 362.382812 439.179688 334.304688 425.480469 C 258.679688 388.570312 207.492188 505.210938 136.597656 477.445312 C 131.914062 475.609375 130.390625 470.136719 130.660156 467.433594 C 132.480469 449.425781 180.429688 476.296875 219.144531 425.691406 C 203.40625 418.917969 141.238281 397.6875 161.019531 378.425781 C 172.390625 367.371094 224.917969 429.242188 290.085938 385.410156 C 223.128906 315.453125 194.277344 304.277344 102.253906 326.882812 C 95.125 328.628906 89.648438 327.761719 86.351562 324.851562 C 62.300781 303.667969 168.121094 292.597656 184.117188 290.777344 C 183.773438 226.402344 127.722656 223.625 140.449219 202.949219 C 148.519531 189.820312 193.886719 220.792969 207.644531 272.769531 C 214.59375 299.058594 235.273438 302.25 263.960938 314.453125 C 266.691406 269.21875 268.230469 227.640625 241.0625 188.804688 C 236.707031 182.582031 237.242188 174.214844 242.554688 171.066406 C 247.863281 167.917969 254.234375 170.351562 259.144531 176.824219 C 321.519531 259.164062 252.847656 320.316406 337.722656 372.308594 C 370.648438 392.480469 407.960938 393.941406 441.066406 370.429688 C 472.679688 347.960938 496.773438 305.695312 488.585938 265.144531 C 480.945312 227.339844 447.871094 201.828125 414.464844 189.714844 C 371.796875 174.230469 336.769531 131.726562 351.449219 122.042969 C 370.230469 109.660156 372.246094 166.113281 442.230469 171.8125 C 440.128906 150.566406 446.140625 86.355469 465.757812 98.785156 C 480.753906 108.273438 440.292969 179.4375 503.460938 220.882812 C 545.457031 146.167969 532.015625 82.910156 482.839844 16.636719 C 478.558594 10.878906 478.441406 4.507812 483.109375 1.601562 C 504.742188 -11.84375 554.78125 92.578125 558.527344 118.863281 C 574.726562 111.03125 587.917969 100.871094 601.566406 89.667969 C 631.433594 65.15625 627.691406 32.332031 638.941406 32.125 C 657.632812 31.765625 649.875 83.671875 605.773438 117.105469 C 592.496094 127.160156 575.773438 135.484375 567.015625 150.550781 C 536.789062 202.605469 523.496094 296.699219 582.320312 331.65625 C 631.03125 360.597656 697.289062 333.714844 714.132812 308.589844 C 743.597656 264.640625 681.371094 222.179688 738.496094 159.027344 C 743.460938 153.535156 749.042969 148.734375 755.472656 152.582031 C 761.46875 156.175781 761.785156 164.742188 756.457031 171.125 C 718.996094 216.121094 745.910156 235.933594 749.9375 289.226562 C 838.734375 259.417969 823.5625 138.15625 839.378906 134.859375 C 848.566406 132.949219 852.492188 136.601562 853.117188 146.390625 C 857.398438 212.304688 818.921875 250.363281 852.894531 240.410156 C 898.160156 227.148438 944.660156 249.691406 937.230469 265.160156 C 926.566406 287.390625 877.078125 210.003906 773.644531 319.855469 C 788.28125 327.195312 801.410156 326.164062 815.238281 330.820312 C 870.4375 349.425781 892.398438 306.800781 907.394531 325.078125 C 910.976562 329.433594 909.796875 335.699219 903.097656 340.636719 C 841.839844 385.738281 779.015625 330.460938 735.019531 358.480469 C 702.867188 378.964844 688.367188 425.734375 702.675781 461.46875 C 714.488281 490.976562 745.851562 509.222656 775.164062 512.429688 C 803.078125 515.472656 841.152344 484.023438 881.152344 489.304688 C 899.859375 491.769531 960.773438 509.34375 947.960938 533.332031 C 940.351562 547.566406 890.984375 479.890625 807.449219 536.898438 C 823.519531 552.636719 839.558594 562.363281 856.488281 575.074219 C 929.101562 629.558594 986.105469 566.527344 997.148438 582.207031 C 1002.488281 589.800781 999.699219 596.992188 990.746094 600.738281 C 923.714844 628.828125 911.332031 629.351562 838.585938 598.378906 C 835.707031 678.300781 884.359375 691.667969 877.898438 708.855469 C 870.933594 727.355469 822.234375 691.699219 814.402344 621.503906 C 811.390625 594.457031 797.515625 567.585938 767.796875 561.796875 C 700.539062 548.699219 635.925781 594.441406 622.410156 662.1875 C 616.546875 691.578125 614.277344 724.582031 621.753906 753.492188 C 640.699219 759.925781 660.855469 769.324219 666.496094 792.417969 C 673.96875 822.972656 688.664062 850.15625 701.71875 878.917969 C 722.070312 923.808594 695.601562 928.597656 697.796875 941.953125 C 702.941406 973.296875 731.484375 929.898438 764.484375 966.851562 C 788.472656 993.722656 817.089844 1015.070312 845.226562 1037.628906 C 876.183594 1062.453125 852.191406 1084.773438 862.949219 1094.425781 C 882.941406 1112.375 884.96875 1067.707031 924.757812 1082.132812 C 960 1094.917969 995 1106.523438 1032.207031 1113.523438 C 1054.660156 1117.742188 1062.179688 1138.585938 1066.328125 1159.414062 C 1103.101562 1170.46875 1146.890625 1145.328125 1164.003906 1109.316406 C 1185.441406 1064.183594 1206.207031 1012.101562 1252.652344 992.167969 C 1285.625 978.011719 1294.230469 945.277344 1320.355469 968.34375 C 1330.589844 977.386719 1333.484375 993.199219 1325.679688 1006.359375 C 1319.011719 1017.605469 1303.136719 1021.097656 1288.011719 1015.039062 C 1254.589844 1001.660156 1205.597656 1069.046875 1200.761719 1102.824219 C 1235.734375 1081.640625 1268.019531 1074.359375 1306.375 1072.195312 C 1320.578125 1071.390625 1331.097656 1058.605469 1343.136719 1068.898438 C 1354.25 1078.402344 1360.742188 1089.203125 1355.191406 1106.179688 C 1352.027344 1115.847656 1343.851562 1119.878906 1335.214844 1121.355469 C 1326.5625 1122.832031 1315.984375 1120.398438 1308.761719 1111.386719 C 1288.324219 1085.863281 1227.632812 1117.3125 1208.492188 1130.933594 L 1150.277344 1172.347656 C 1181.785156 1179.613281 1207.28125 1186.296875 1234.765625 1195.710938 C 1268.957031 1207.421875 1289.621094 1163.800781 1309.867188 1196.816406 C 1317.355469 1209.046875 1315.402344 1225.550781 1303.972656 1235.050781 C 1293.351562 1243.871094 1277.238281 1242.707031 1265.019531 1232.351562 C 1255.488281 1224.28125 1241.851562 1225.9375 1229.914062 1222.847656 C 1202.359375 1215.71875 1179.5625 1203.320312 1146.964844 1203.171875 L 1200.496094 1286.210938 C 1212.148438 1304.277344 1237.6875 1329.222656 1259.933594 1323.34375 C 1278.417969 1318.464844 1291.710938 1311.109375 1303.628906 1326.445312 C 1313.878906 1339.636719 1311.941406 1357.136719 1301.675781 1366.894531 C 1283.386719 1384.242188 1271.210938 1368.714844 1255.546875 1360.433594 C 1217.679688 1340.441406 1182.429688 1320.792969 1164.0625 1279.125 Z M 613.949219 467.644531 C 610.324219 447.859375 594.75 433.0625 578.308594 427.71875 C 548.007812 417.871094 514.78125 428.972656 496.117188 454.007812 C 483.109375 471.460938 481.722656 492.394531 490.75 511.429688 C 506.921875 545.535156 561.300781 552.382812 592.464844 524.648438 C 606.640625 512.027344 618.546875 492.707031 613.949219 467.65625 Z M 613.949219 467.644531 " fill-opacity="1" fill-rule="nonzero"/></g></svg>